<svg width="456" height="456" viewBox="0 0 456 456" fill="none" xmlns="http://www.w3.org/2000/svg">
<path d="M33.9194 418V343.091H54.2561V373.376H55.2802L77.8115 343.091H101.513L76.2021 376.449L102.098 418H77.8115L60.9862 389.909L54.2561 398.688V418H33.9194ZM107.548 418V343.091H161.536V359.477H127.885V372.352H158.756V388.739H127.885V401.614H161.389V418H107.548ZM171.914 439.068V361.818H191.958V371.621H192.397C193.129 369.719 194.202 367.975 195.616 366.39C197.03 364.781 198.786 363.501 200.883 362.55C202.98 361.574 205.418 361.087 208.198 361.087C211.905 361.087 215.428 362.074 218.769 364.049C222.134 366.025 224.865 369.134 226.962 373.376C229.084 377.619 230.144 383.13 230.144 389.909C230.144 396.395 229.132 401.772 227.108 406.039C225.109 410.307 222.427 413.489 219.062 415.586C215.721 417.683 212.051 418.732 208.052 418.732C205.418 418.732 203.065 418.305 200.993 417.451C198.944 416.574 197.189 415.391 195.726 413.903C194.287 412.392 193.177 410.685 192.397 408.783H192.105V439.068H171.914ZM191.666 389.909C191.666 392.64 192.019 395.005 192.726 397.005C193.458 398.98 194.482 400.516 195.799 401.614C197.14 402.687 198.737 403.223 200.59 403.223C202.444 403.223 204.016 402.699 205.309 401.65C206.625 400.577 207.625 399.053 208.308 397.078C209.015 395.079 209.369 392.689 209.369 389.909C209.369 387.129 209.015 384.752 208.308 382.777C207.625 380.777 206.625 379.253 205.309 378.205C204.016 377.132 202.444 376.595 200.59 376.595C198.737 376.595 197.14 377.132 195.799 378.205C194.482 379.253 193.458 380.777 192.726 382.777C192.019 384.752 191.666 387.129 191.666 389.909ZM265.669 419.024C259.573 419.024 254.355 417.817 250.015 415.403C245.674 412.965 242.346 409.575 240.029 405.235C237.713 400.87 236.554 395.81 236.554 390.055C236.554 384.301 237.713 379.253 240.029 374.913C242.346 370.548 245.674 367.158 250.015 364.744C254.355 362.306 259.573 361.087 265.669 361.087C271.766 361.087 276.984 362.306 281.324 364.744C285.665 367.158 288.993 370.548 291.31 374.913C293.626 379.253 294.784 384.301 294.784 390.055C294.784 395.81 293.626 400.87 291.31 405.235C288.993 409.575 285.665 412.965 281.324 415.403C276.984 417.817 271.766 419.024 265.669 419.024ZM265.816 404.101C267.523 404.101 268.998 403.528 270.242 402.382C271.485 401.236 272.448 399.602 273.131 397.48C273.814 395.359 274.155 392.835 274.155 389.909C274.155 386.959 273.814 384.435 273.131 382.338C272.448 380.216 271.485 378.583 270.242 377.436C268.998 376.29 267.523 375.717 265.816 375.717C264.011 375.717 262.463 376.29 261.17 377.436C259.878 378.583 258.891 380.216 258.208 382.338C257.525 384.435 257.184 386.959 257.184 389.909C257.184 392.835 257.525 395.359 258.208 397.48C258.891 399.602 259.878 401.236 261.17 402.382C262.463 403.528 264.011 404.101 265.816 404.101ZM330.044 419.024C323.948 419.024 318.73 417.817 314.39 415.403C310.049 412.965 306.721 409.575 304.404 405.235C302.088 400.87 300.929 395.81 300.929 390.055C300.929 384.301 302.088 379.253 304.404 374.913C306.721 370.548 310.049 367.158 314.39 364.744C318.73 362.306 323.948 361.087 330.044 361.087C335.555 361.087 340.322 362.086 344.346 364.086C348.394 366.061 351.527 368.865 353.746 372.499C355.965 376.107 357.087 380.35 357.111 385.227H338.384C338.116 382.277 337.262 380.033 335.824 378.497C334.409 376.937 332.58 376.156 330.337 376.156C328.581 376.156 327.045 376.668 325.728 377.692C324.412 378.692 323.387 380.216 322.656 382.265C321.924 384.288 321.559 386.837 321.559 389.909C321.559 392.982 321.924 395.542 322.656 397.59C323.387 399.614 324.412 401.138 325.728 402.162C327.045 403.162 328.581 403.662 330.337 403.662C331.824 403.662 333.141 403.321 334.287 402.638C335.433 401.931 336.36 400.906 337.067 399.565C337.799 398.2 338.238 396.542 338.384 394.591H357.111C357.038 399.541 355.904 403.857 353.71 407.539C351.515 411.197 348.406 414.025 344.383 416.025C340.383 418.024 335.604 419.024 330.044 419.024ZM385.632 386.398V418H365.442V343.091H384.9V372.499H385.486C386.754 368.914 388.863 366.122 391.813 364.123C394.764 362.099 398.312 361.087 402.457 361.087C406.432 361.087 409.882 361.989 412.808 363.793C415.759 365.598 418.039 368.085 419.648 371.255C421.282 374.425 422.087 378.058 422.062 382.155V418H401.872V386.398C401.896 383.618 401.201 381.435 399.787 379.85C398.397 378.266 396.41 377.473 393.825 377.473C392.191 377.473 390.753 377.839 389.509 378.57C388.29 379.277 387.339 380.302 386.656 381.643C385.998 382.96 385.656 384.545 385.632 386.398Z" fill="black"/>
<ellipse cx="128.996" cy="147.15" rx="98.8499" ry="98.85" fill="#42689E"/>
<ellipse cx="128.782" cy="146.935" rx="49.3177" ry="49.3178" fill="black"/>
<path d="M25 26C184.301 101.952 226.32 190.876 227.417 225.844" stroke="black" stroke-width="40" stroke-linecap="round"/>
<ellipse cx="128.996" cy="147.15" rx="13.0799" ry="13.0799" fill="#C8102E"/>
<ellipse cx="98.8499" cy="98.85" rx="98.8499" ry="98.85" transform="matrix(-1 0 0 1 425.546 48.2999)" fill="#C8102E"/>
<ellipse cx="49.3177" cy="49.3178" rx="49.3177" ry="49.3178" transform="matrix(-1 0 0 1 376.228 97.6177)" fill="black"/>
<path d="M430.692 26C271.391 101.952 229.372 190.876 228.275 225.844" stroke="black" stroke-width="40" stroke-linecap="round"/>
<ellipse cx="329.698" cy="147.15" rx="13.0799" ry="13.0799" fill="#42689E"/>
</svg>
