<svg width="512" height="512" viewBox="0 0 512 512" fill="none" xmlns="http://www.w3.org/2000/svg">
<path d="M74.6094 440V370.182H93.5639V398.409H94.5185L115.518 370.182H137.609L114.018 401.273L138.155 440H115.518L99.8366 413.818L93.5639 422V440H74.6094ZM143.234 440V370.182H193.553V385.455H162.189V397.455H190.962V412.727H162.189V424.727H193.416V440H143.234ZM203.226 459.636V387.636H221.908V396.773H222.317C222.999 395 223.999 393.375 225.317 391.898C226.635 390.398 228.271 389.205 230.226 388.318C232.18 387.409 234.453 386.955 237.044 386.955C240.499 386.955 243.783 387.875 246.896 389.716C250.033 391.557 252.578 394.455 254.533 398.409C256.51 402.364 257.499 407.5 257.499 413.818C257.499 419.864 256.555 424.875 254.669 428.852C252.805 432.83 250.305 435.795 247.169 437.75C244.055 439.705 240.635 440.682 236.908 440.682C234.453 440.682 232.26 440.284 230.328 439.489C228.419 438.67 226.783 437.568 225.419 436.182C224.078 434.773 223.044 433.182 222.317 431.409H222.044V459.636H203.226ZM221.635 413.818C221.635 416.364 221.964 418.568 222.624 420.432C223.305 422.273 224.26 423.705 225.487 424.727C226.737 425.727 228.226 426.227 229.953 426.227C231.68 426.227 233.146 425.739 234.351 424.761C235.578 423.761 236.51 422.341 237.146 420.5C237.805 418.636 238.135 416.409 238.135 413.818C238.135 411.227 237.805 409.011 237.146 407.17C236.51 405.307 235.578 403.886 234.351 402.909C233.146 401.909 231.68 401.409 229.953 401.409C228.226 401.409 226.737 401.909 225.487 402.909C224.26 403.886 223.305 405.307 222.624 407.17C221.964 409.011 221.635 411.227 221.635 413.818ZM290.609 440.955C284.928 440.955 280.064 439.83 276.018 437.58C271.973 435.307 268.871 432.148 266.712 428.102C264.553 424.034 263.473 419.318 263.473 413.955C263.473 408.591 264.553 403.886 266.712 399.841C268.871 395.773 271.973 392.614 276.018 390.364C280.064 388.091 284.928 386.955 290.609 386.955C296.291 386.955 301.155 388.091 305.2 390.364C309.246 392.614 312.348 395.773 314.507 399.841C316.666 403.886 317.746 408.591 317.746 413.955C317.746 419.318 316.666 424.034 314.507 428.102C312.348 432.148 309.246 435.307 305.2 437.58C301.155 439.83 296.291 440.955 290.609 440.955ZM290.746 427.045C292.337 427.045 293.712 426.511 294.871 425.443C296.03 424.375 296.928 422.852 297.564 420.875C298.2 418.898 298.518 416.545 298.518 413.818C298.518 411.068 298.2 408.716 297.564 406.761C296.928 404.784 296.03 403.261 294.871 402.193C293.712 401.125 292.337 400.591 290.746 400.591C289.064 400.591 287.621 401.125 286.416 402.193C285.212 403.261 284.291 404.784 283.655 406.761C283.018 408.716 282.7 411.068 282.7 413.818C282.7 416.545 283.018 418.898 283.655 420.875C284.291 422.852 285.212 424.375 286.416 425.443C287.621 426.511 289.064 427.045 290.746 427.045ZM350.609 440.955C344.928 440.955 340.064 439.83 336.018 437.58C331.973 435.307 328.871 432.148 326.712 428.102C324.553 424.034 323.473 419.318 323.473 413.955C323.473 408.591 324.553 403.886 326.712 399.841C328.871 395.773 331.973 392.614 336.018 390.364C340.064 388.091 344.928 386.955 350.609 386.955C355.746 386.955 360.189 387.886 363.939 389.75C367.712 391.591 370.632 394.205 372.7 397.591C374.768 400.955 375.814 404.909 375.837 409.455H358.382C358.132 406.705 357.337 404.614 355.996 403.182C354.678 401.727 352.973 401 350.882 401C349.246 401 347.814 401.477 346.587 402.432C345.359 403.364 344.405 404.784 343.723 406.693C343.041 408.58 342.7 410.955 342.7 413.818C342.7 416.682 343.041 419.068 343.723 420.977C344.405 422.864 345.359 424.284 346.587 425.239C347.814 426.17 349.246 426.636 350.882 426.636C352.268 426.636 353.496 426.318 354.564 425.682C355.632 425.023 356.496 424.068 357.155 422.818C357.837 421.545 358.246 420 358.382 418.182H375.837C375.768 422.795 374.712 426.818 372.666 430.25C370.621 433.659 367.723 436.295 363.973 438.159C360.246 440.023 355.791 440.955 350.609 440.955ZM402.419 410.545V440H383.601V370.182H401.737V397.591H402.283C403.464 394.25 405.43 391.648 408.18 389.784C410.93 387.898 414.237 386.955 418.101 386.955C421.805 386.955 425.021 387.795 427.749 389.477C430.499 391.159 432.624 393.477 434.124 396.432C435.646 399.386 436.396 402.773 436.374 406.591V440H417.555V410.545C417.578 407.955 416.93 405.92 415.612 404.443C414.317 402.966 412.464 402.227 410.055 402.227C408.533 402.227 407.192 402.568 406.033 403.25C404.896 403.909 404.01 404.864 403.374 406.114C402.76 407.341 402.442 408.818 402.419 410.545Z" fill="black"/>
<ellipse cx="164.385" cy="180.283" rx="91.6152" ry="91.6153" fill="#42689E"/>
<ellipse cx="164.186" cy="180.085" rx="45.7082" ry="45.7083" fill="black"/>
<path d="M68 68C215.642 138.394 254.586 220.809 255.603 253.218" stroke="black" stroke-width="40" stroke-linecap="round"/>
<ellipse cx="164.385" cy="180.283" rx="12.1226" ry="12.1226" fill="#C8102E"/>
<ellipse cx="91.6152" cy="91.6153" rx="91.6152" ry="91.6153" transform="matrix(-1 0 0 1 439.23 88.668)" fill="#C8102E"/>
<ellipse cx="45.7082" cy="45.7083" rx="45.7082" ry="45.7083" transform="matrix(-1 0 0 1 393.522 134.376)" fill="black"/>
<path d="M444 68C296.358 138.394 257.414 220.809 256.397 253.218" stroke="black" stroke-width="40" stroke-linecap="round"/>
<ellipse cx="350.397" cy="180.283" rx="12.1226" ry="12.1226" fill="#42689E"/>
</svg>
